<!--
  Adapted from OpenMoji (1F3B2 "dice") — https://openmoji.org
  Original: (c) OpenMoji contributors, licensed CC BY-SA 4.0
  Changes: rewrapped from the original 72x72 into a 160x110 canvas,
           centred and scaled 1.25x, drop shadow added,
           line colour changed from #000000 to #263238.
  This adaptation: CC BY-SA 4.0 — https://creativecommons.org/licenses/by-sa/4.0/
-->
<svg xmlns="http://www.w3.org/2000/svg" viewBox="0 0 160 110">
  <defs><filter id="s" x="-20%" y="-20%" width="140%" height="140%"><feDropShadow dx="0" dy="3" stdDeviation="2" flood-color="#000000" flood-opacity="0.16"/></filter></defs>
  <g filter="url(#s)" transform="translate(35,10) scale(1.25)">
    <g id="color">
    <polygon fill="#D0CFCE" points="58.0936,22.6076 35.6729,27.8442 13.9289,22.2732 35.6729,17.4173"/>
    <polygon fill="#9B9B9A" points="58.2211,48.3473 36.0428,54.1045 35.6729,27.0042 58.1657,21.846"/>
    <polygon fill="#D0CFCE" points="13.9856,47.957 35.7027,54.1045 35.6729,27.8442 22.6497,24.6986 13.9832,22.2957"/>
  </g>
  <g id="hair"/>
  <g id="skin"/>
  <g id="skin-shadow"/>
  <g id="line">
    <polyline fill="none" stroke="#263238" stroke-linecap="round" stroke-linejoin="round" stroke-miterlimit="10" stroke-width="2.069" points="35.6352,54.0172 57.4698,48.7313 57.4698,21.7647 35.6167,26.5155 13.7667,21.7647 13.7667,48.7313 35.6013,54.0172 35.6013,30.3713"/>
    <polyline fill="none" stroke="#263238" stroke-linecap="round" stroke-linejoin="round" stroke-miterlimit="10" stroke-width="2.069" points="13.7667,21.7647 35.8082,16.4545 57.4698,21.7647"/>
    <circle cx="21.2735" cy="32.9339" r="3"/>
    <circle cx="27.2446" cy="44.3761" r="3"/>
    <circle cx="41.767" cy="45.2211" r="3"/>
    <circle cx="46.8274" cy="38.0668" r="3"/>
    <circle cx="51.8878" cy="30.9124" r="3"/>
    <ellipse cx="35.8312" cy="21.1219" rx="4" ry="1.6191"/>
  </g>
  </g>
</svg>
